<svg width="40" height="35" viewBox="0 0 40 35" fill="none" xmlns="http://www.w3.org/2000/svg">
<path d="M23.2796 16.1516C24.162 15.3248 24.708 14.1827 24.708 12.9204C24.708 11.658 24.162 10.516 23.2796 9.68915L24.4285 8.61257C25.6066 9.71655 26.333 11.2393 26.333 12.9204C26.333 14.6015 25.6066 16.1242 24.4285 17.2267L23.2796 16.1516ZM10.6404 21.5345L11.7893 20.4579C9.73038 18.5301 8.45801 15.8638 8.45801 12.9204C8.45801 9.97694 9.73038 7.31216 11.7893 5.38286L10.6404 4.30629C8.28901 6.5112 6.83301 9.55667 6.83301 12.9204C6.83301 16.2841 8.28901 19.3296 10.6404 21.5345ZM29.024 21.533C31.377 19.3296 32.833 16.2841 32.833 12.9204C32.833 9.55667 31.377 6.5112 29.024 4.30629L27.8768 5.38286C29.9356 7.31216 31.208 9.97694 31.208 12.9204C31.208 15.8638 29.9356 18.5301 27.8768 20.4579L29.024 21.533ZM16.3864 16.1501C15.504 15.3248 14.958 14.1827 14.958 12.9204C14.958 11.658 15.504 10.516 16.3864 9.69067L15.2375 8.6141C14.061 9.71655 13.333 11.2393 13.333 12.9204C13.333 14.6015 14.061 16.1242 15.2375 17.2267L16.3864 16.1501ZM33.6211 0L32.4723 1.07657C35.7076 4.10681 37.708 8.29432 37.708 12.9204C37.708 17.5449 35.7076 21.7324 32.4723 24.7642L33.6211 25.8408C37.149 22.5334 39.333 17.9652 39.333 12.9204C39.333 7.87557 37.149 3.30737 33.6211 0ZM7.19376 1.07657L6.04488 0C2.51538 3.30737 0.333008 7.87557 0.333008 12.9204C0.333008 17.9652 2.51538 22.5334 6.04488 25.8408L7.19376 24.7642C3.95838 21.7324 1.95801 17.5449 1.95801 12.9204C1.95801 8.29432 3.95838 4.10681 7.19376 1.07657ZM21.458 14.6335C21.9618 14.2147 22.2835 13.6117 22.2835 12.9326C22.2835 11.6717 21.1915 10.6485 19.846 10.6485C18.5005 10.6485 17.4085 11.6717 17.4085 12.9326C17.4085 13.5995 17.7205 14.1964 18.208 14.6137V33.4773H10.083V35H29.583V33.4773H21.458V14.6335Z" fill="#A0B0D1"/>
</svg>
